<svg xmlns="http://www.w3.org/2000/svg" x="0px" y="0px" width="100" height="100" viewBox="0 0 100 100">
<path d="M54.858,95.681c-1.017,0-2.03-0.169-3.021-0.503c-0.965,0.331-1.987,0.503-3.035,0.503c-0.987,0-1.972-0.158-2.926-0.469 c-0.591-0.197-1.151-0.448-1.68-0.748c-0.447,0.066-0.901,0.1-1.359,0.1c-1.344,0-2.644-0.281-3.862-0.835 c-0.7-0.318-1.35-0.717-1.94-1.188c-1.167-0.073-2.328-0.368-3.389-0.863c-1.035-0.486-1.956-1.146-2.731-1.945 c-0.619-0.112-1.226-0.289-1.812-0.527c-1.88-0.753-3.441-2.083-4.484-3.805c-2.414-0.992-4.251-2.92-5.169-5.245 c-1.349-0.729-2.507-1.79-3.371-3.115c-1.062-1.627-1.581-3.502-1.515-5.406c-1.442-0.94-2.628-2.276-3.378-3.895 c-1.986-4.305-2.87-9.087-2.87-15.515c0-1.801,0.118-3.654,0.352-5.511c0.007-0.065,0.015-0.131,0.023-0.195 c0.274-2.123,0.696-4.206,1.253-6.197c0.179-0.628,0.415-1.201,0.726-1.768c0.346-0.664,0.768-1.279,1.253-1.834 c0.005-1.397,0.329-2.796,0.974-4.085l0.067-0.132c1.483-2.946,3.413-5.864,5.724-8.65c8.059-9.726,20.34-15.533,32.85-15.533 c1.434,0,2.826,0.33,4.081,0.938c0.838-0.246,1.717-0.373,2.615-0.373c0.605,0,1.224,0.06,1.787,0.173 c7.083,1.311,13.869,4.47,19.55,9.12c2.726,2.233,5.184,4.806,7.31,7.646c1.731,2.311,3.222,4.748,4.427,7.241 c0.038,0.074,0.169,0.347,0.169,0.347c0.052,0.109,0.095,0.204,0.133,0.294c0.929,2.025,1.74,4.216,2.351,6.341l0.033,0.121 c0.583,2.061,1.021,4.234,1.304,6.462c0.266,2.071,0.39,3.852,0.39,5.595v0.218c0,3.537-1.977,6.621-4.883,8.205 c0.319,0.891,0.505,1.837,0.543,2.813c0.068,1.828,0.103,3.671,0.103,5.483c0,4.216-2.808,7.787-6.65,8.944 c-0.028,0.306-0.058,0.607-0.088,0.907c-0.433,4.417-3.862,7.84-8.177,8.347c-1.596,2.994-4.772,4.97-8.251,4.97 c-0.169,0-0.339-0.005-0.508-0.014c-1.727,1.819-4.157,2.913-6.775,2.913c-0.712,0-1.417-0.08-2.106-0.24 C57.653,95.364,56.281,95.681,54.858,95.681z" opacity=".35"></path><path fill="#f2f2f2" d="M52.858,93.681c-1.017,0-2.03-0.169-3.021-0.503c-0.965,0.331-1.987,0.503-3.035,0.503 c-0.987,0-1.972-0.158-2.926-0.469c-0.591-0.197-1.151-0.448-1.68-0.748c-0.447,0.066-0.901,0.1-1.359,0.1 c-1.344,0-2.644-0.281-3.862-0.835c-0.7-0.318-1.35-0.717-1.94-1.188c-1.167-0.073-2.328-0.368-3.389-0.863 c-1.035-0.486-1.956-1.146-2.731-1.945c-0.619-0.112-1.226-0.289-1.812-0.527c-1.88-0.753-3.441-2.083-4.484-3.805 c-2.414-0.992-4.251-2.92-5.169-5.245c-1.349-0.729-2.507-1.79-3.371-3.115c-1.062-1.627-1.581-3.502-1.515-5.406 c-1.442-0.94-2.628-2.276-3.378-3.895c-1.986-4.305-2.87-9.087-2.87-15.515c0-1.801,0.118-3.654,0.352-5.511 c0.007-0.065,0.015-0.131,0.023-0.195c0.274-2.123,0.696-4.206,1.253-6.197c0.179-0.628,0.415-1.201,0.726-1.768 c0.346-0.664,0.768-1.279,1.253-1.834c0.005-1.397,0.329-2.796,0.974-4.085l0.067-0.132c1.483-2.946,3.413-5.864,5.724-8.65 c8.059-9.726,20.34-15.533,32.85-15.533c1.434,0,2.826,0.33,4.081,0.938c0.838-0.246,1.717-0.373,2.615-0.373 c0.605,0,1.224,0.06,1.787,0.173c7.083,1.311,13.869,4.47,19.55,9.12c2.726,2.233,5.184,4.806,7.31,7.646 c1.731,2.311,3.222,4.748,4.427,7.241c0.038,0.074,0.169,0.347,0.169,0.347c0.052,0.109,0.095,0.204,0.133,0.294 c0.929,2.025,1.74,4.216,2.351,6.341l0.033,0.121c0.583,2.061,1.021,4.234,1.304,6.462c0.266,2.071,0.39,3.852,0.39,5.595v0.218 c0,3.537-1.977,6.621-4.883,8.205c0.319,0.891,0.505,1.837,0.543,2.813c0.068,1.828,0.103,3.671,0.103,5.483 c0,4.216-2.808,7.787-6.65,8.944c-0.028,0.306-0.058,0.607-0.088,0.907c-0.433,4.417-3.862,7.84-8.177,8.347 c-1.596,2.994-4.772,4.97-8.251,4.97c-0.169,0-0.339-0.005-0.508-0.014c-1.727,1.819-4.157,2.913-6.775,2.913 c-0.712,0-1.417-0.08-2.106-0.24C55.653,93.364,54.281,93.681,52.858,93.681z"></path><path fill="#d84178" d="M30.597,81.384c-0.368,0-0.727-0.07-1.064-0.209c-0.692-0.276-1.245-0.815-1.544-1.512 c-0.299-0.697-0.308-1.469-0.026-2.173c0.41-1.021,1.666-4.288,2.059-5.873l0.04-0.168c0.05-0.208,0.124-0.36,0.165-0.44 c0.438-1.064,1.474-1.771,2.603-1.771c0.207,0,0.414,0.023,0.617,0.069c0.729,0.157,1.362,0.599,1.771,1.237 c0.408,0.638,0.545,1.397,0.384,2.138l-0.065,0.281l-0.101,0.36c-0.558,2.069-1.817,5.304-2.19,6.245 C32.799,80.684,31.764,81.384,30.597,81.384z"></path><path fill="#40396e" d="M32.829,70.738c0.094,0,0.189,0.01,0.285,0.032c0.721,0.157,1.178,0.871,1.021,1.593l-0.061,0.259 c-0.025,0.095-0.061,0.211-0.087,0.312c-0.598,2.218-2.082,5.943-2.148,6.109c-0.209,0.523-0.712,0.84-1.242,0.84 c-0.164,0-0.334-0.03-0.496-0.096c-0.687-0.275-1.021-1.054-0.746-1.74c0.016-0.041,1.631-4.088,2.121-6.07l0.045-0.187 c0.016-0.068,0.057-0.12,0.08-0.182C31.799,71.089,32.284,70.738,32.829,70.738 M32.829,67.738c-1.718,0-3.293,1.058-3.97,2.65 c-0.085,0.173-0.186,0.41-0.257,0.709l-0.045,0.187c-0.332,1.342-1.406,4.183-1.987,5.646c-0.432,1.077-0.418,2.257,0.039,3.323 c0.457,1.065,1.301,1.889,2.377,2.32c0.502,0.204,1.049,0.311,1.61,0.311c1.785,0,3.366-1.071,4.028-2.728 c0.273-0.687,1.652-4.188,2.259-6.441l0.032-0.115l0.059-0.213c0.007-0.027,0.014-0.053,0.02-0.08l0.061-0.259 c0.519-2.385-0.968-4.701-3.303-5.21C33.465,67.774,33.146,67.738,32.829,67.738L32.829,67.738z"></path><path fill="#d84178" d="M17.663,64.657c-1.103,0-2.114-0.646-2.578-1.648c-1.569-3.399-2.27-7.342-2.27-12.784 c0-1.568,0.105-3.184,0.313-4.802c0.002-0.025,0.004-0.051,0.008-0.077c0.234-1.808,0.592-3.577,1.062-5.257 c0.071-0.249,0.171-0.414,0.22-0.493c0.436-0.936,1.438-1.58,2.52-1.58c0.257,0,0.513,0.035,0.761,0.105 c0.725,0.201,1.333,0.677,1.705,1.34c0.373,0.662,0.465,1.429,0.258,2.16c-0.296,1.062-0.542,2.215-0.75,3.518 c-0.277,1.745-0.419,3.455-0.419,5.086c0,1.807,0.086,3.383,0.263,4.815c0.004,0.021,0.007,0.04,0.009,0.06 c0.267,2.146,0.75,3.954,1.477,5.529c0.652,1.422,0.029,3.11-1.388,3.767C18.471,64.57,18.072,64.657,17.663,64.657z"></path><path fill="#40396e" d="M16.938,39.515c0.116,0,0.234,0.016,0.352,0.049c0.712,0.198,1.129,0.937,0.928,1.649 c-0.337,1.21-0.588,2.444-0.788,3.689c0,0.001,0.001,0.002,0.001,0.003c-0.28,1.754-0.439,3.531-0.439,5.321 c0,1.886,0.093,3.551,0.281,5.055c0.001,0.002,0.001,0.004,0.002,0.006c0.289,2.325,0.812,4.259,1.602,5.972 c0.309,0.673,0.016,1.467-0.655,1.777c-0.182,0.084-0.373,0.123-0.56,0.123c-0.507,0-0.99-0.289-1.217-0.778 c-1.474-3.194-2.13-6.942-2.13-12.154c0-1.57,0.109-3.133,0.31-4.678c0-0.003-0.001-0.005-0.001-0.008 c0.221-1.707,0.557-3.394,1.019-5.048c0.021-0.074,0.068-0.129,0.101-0.196c0-0.001,0-0.001-0.001-0.002 C15.965,39.823,16.429,39.515,16.938,39.515 M16.938,36.515c-1.621,0-3.123,0.937-3.859,2.397 c-0.104,0.182-0.229,0.434-0.321,0.756c-0.495,1.77-0.866,3.61-1.109,5.486c-0.005,0.039-0.009,0.077-0.013,0.116 c-0.213,1.671-0.321,3.337-0.321,4.955c0,5.668,0.742,9.805,2.406,13.411c0.711,1.533,2.257,2.521,3.941,2.521 c0.631,0,1.242-0.134,1.816-0.398c2.17-1.004,3.121-3.584,2.126-5.753c-0.663-1.437-1.104-3.1-1.352-5.091 c-0.004-0.031-0.008-0.062-0.013-0.093c-0.167-1.361-0.248-2.866-0.248-4.597c0-1.549,0.135-3.18,0.401-4.847 c0.005-0.031,0.009-0.063,0.013-0.094c0.198-1.213,0.427-2.282,0.701-3.266c0.313-1.104,0.174-2.276-0.395-3.289 c-0.569-1.013-1.499-1.743-2.619-2.055C17.724,36.569,17.332,36.515,16.938,36.515L16.938,36.515z"></path><path fill="#d84178" d="M46.803,87.181c-0.299,0-0.597-0.047-0.885-0.14c-1.498-0.502-2.303-2.112-1.809-3.595l1.19-3.569 c0.388-1.161,1.469-1.94,2.69-1.94c0.305,0,0.607,0.049,0.899,0.146c0.716,0.235,1.299,0.739,1.639,1.417 c0.341,0.679,0.396,1.45,0.156,2.171l-1.19,3.569C49.11,86.399,48.028,87.181,46.803,87.181z"></path><path fill="#40396e" d="M47.99,79.436c0.141,0,0.284,0.022,0.426,0.07c0.701,0.232,1.079,0.99,0.846,1.691l-1.19,3.568 c-0.186,0.56-0.708,0.915-1.269,0.915c-0.139,0-0.282-0.021-0.425-0.068c-0.699-0.234-1.079-0.992-0.846-1.693l1.19-3.568 C46.909,79.792,47.428,79.436,47.99,79.436 M47.99,76.436c-1.867,0-3.52,1.191-4.112,2.965l-1.191,3.57 c-0.756,2.269,0.474,4.73,2.741,5.488c0.462,0.15,0.917,0.222,1.375,0.222c1.873,0,3.528-1.194,4.116-2.972l1.188-3.562 c0.367-1.102,0.283-2.28-0.237-3.317c-0.52-1.036-1.412-1.807-2.512-2.171C48.919,76.511,48.457,76.436,47.99,76.436L47.99,76.436z"></path><path fill="#d84178" d="M80.108,69.783c-1.564,0-2.838-1.273-2.838-2.839c0-1.52-0.027-3.043-0.083-4.658l-0.01-0.346 c-0.056-1.506,1.04-2.766,2.512-2.935c0.092-0.017,0.186-0.025,0.273-0.025l0.072-0.002c1.52,0,2.756,1.199,2.814,2.73 c0.064,1.751,0.098,3.512,0.098,5.235C82.947,68.51,81.674,69.783,80.108,69.783z"></path><path fill="#40396e" d="M80.035,60.479c0.73,0,1.288,0.573,1.316,1.288c0.061,1.633,0.096,3.361,0.096,5.178 c0,0.739-0.599,1.338-1.338,1.338c-0.739,0-1.338-0.599-1.338-1.338c0-1.65-0.032-3.215-0.084-4.71 c-0.005-0.12-0.005-0.248-0.011-0.367c-0.027-0.721,0.525-1.322,1.24-1.376c0.016,0,0.03-0.011,0.046-0.011 C79.987,60.479,80.011,60.479,80.035,60.479 M80.035,57.479c-0.075,0-0.15,0.002-0.227,0.006v0 c-0.111,0.006-0.224,0.018-0.335,0.037c-2.227,0.278-3.879,2.194-3.795,4.457l0.004,0.138c0.002,0.086,0.004,0.171,0.008,0.253 c0.054,1.564,0.081,3.071,0.081,4.576c0,2.392,1.946,4.338,4.338,4.338c2.392,0,4.338-1.946,4.338-4.338 c0-1.752-0.033-3.531-0.098-5.289C84.258,59.311,82.363,57.479,80.035,57.479L80.035,57.479z"></path><path fill="#d84178" d="M52.858,87.181c-0.353,0-0.702-0.065-1.039-0.195c-1.475-0.601-2.177-2.258-1.592-3.705 c0.92-2.277,2.08-6.474,2.212-7.016c0.005-0.025,0.01-0.051,0.016-0.076c0.927-3.921,1.156-6.865,1.18-7.188 c0.089-1.49,1.326-2.663,2.815-2.663c0.034,0,0.163,0.004,0.197,0.007c0.744,0.044,1.438,0.381,1.942,0.947 c0.503,0.566,0.756,1.295,0.71,2.052c-0.007,0.116-0.18,2.948-1.051,6.986c-0.001,0.007-0.005,0.024-0.005,0.024 c-0.714,3.263-1.636,6.286-2.753,9.051C55.055,86.484,54.021,87.181,52.858,87.181z"></path><path fill="#40396e" d="M56.451,67.837c0.032,0,0.063,0.001,0.096,0.003c0.739,0.045,1.301,0.678,1.256,1.413 c-0.011,0.184-0.187,2.902-1.019,6.76c0,0,0,0,0,0c-0.002,0.01-0.005,0.021-0.007,0.032c-0.004,0.018-0.007,0.035-0.011,0.052 l-0.001,0c-0.555,2.536-1.404,5.627-2.665,8.746c-0.211,0.521-0.712,0.837-1.242,0.837c-0.166,0-0.335-0.032-0.501-0.096 c-0.685-0.278-1.015-1.058-0.739-1.743c1.042-2.576,2.32-7.308,2.296-7.308l0,0c1.01-4.273,1.213-7.39,1.217-7.437 C55.174,68.391,55.734,67.837,56.451,67.837 M56.451,64.837c-2.275,0-4.167,1.783-4.313,4.062c-0.034,0.464-0.263,3.22-1.143,6.944 c-0.008,0.034-0.015,0.068-0.022,0.101c-0.167,0.669-1.265,4.619-2.136,6.772c-0.894,2.216,0.178,4.749,2.391,5.647 c0.558,0.216,1.091,0.317,1.63,0.317c1.778,0,3.357-1.065,4.023-2.713c1.148-2.84,2.093-5.941,2.811-9.217 c0.006-0.027,0.012-0.053,0.016-0.072c0.904-4.193,1.081-7.129,1.088-7.252c0.07-1.149-0.316-2.264-1.087-3.132 c-0.769-0.865-1.828-1.38-2.984-1.45C56.649,64.841,56.549,64.837,56.451,64.837L56.451,64.837z"></path><path fill="#d84178" d="M66.281,83.612c-0.277,0-0.552-0.04-0.814-0.119c-1.5-0.453-2.353-2.038-1.903-3.534 c0.664-2.219,1.188-4.745,1.553-7.509c0.456-3.404,0.659-7.04,0.606-10.811c-0.047-3.554-0.324-7.136-0.779-10.087 c-0.105-0.676-0.213-1.317-0.328-1.877c-0.233-1.139-0.524-2.224-0.865-3.225c-0.245-0.715-0.196-1.485,0.139-2.166 c0.334-0.682,0.914-1.191,1.633-1.436c0.294-0.101,0.603-0.152,0.916-0.152c1.217,0,2.297,0.774,2.687,1.927 c0.417,1.223,0.771,2.54,1.052,3.91c0.069,0.343,0.139,0.719,0.206,1.096c0.523,2.944,0.877,6.611,0.997,10.325 c0.123,3.818-0.003,7.563-0.373,11.133c-0.003,0.024-0.006,0.049-0.01,0.073c-0.4,3.834-1.071,7.342-1.997,10.428 C68.643,82.78,67.525,83.612,66.281,83.612z"></path><path fill="#40396e" d="M66.437,44.197c0.556,0,1.078,0.35,1.266,0.907c0.398,1.167,0.735,2.423,1.003,3.731 c0.068,0.33,0.134,0.692,0.198,1.056l0,0c0.473,2.658,0.849,6.179,0.976,10.113c0.111,3.436,0.023,7.174-0.366,10.928l-0.002,0.001 c-0.36,3.487-0.976,6.976-1.95,10.224c-0.173,0.582-0.707,0.955-1.281,0.955c-0.127,0-0.257-0.018-0.384-0.055 c-0.708-0.214-1.11-0.96-0.898-1.666c0.735-2.455,1.251-5.081,1.604-7.744c0.001,0,0.001-0.001,0.002-0.001 c0.496-3.721,0.665-7.511,0.617-11.027c-0.054-3.963-0.375-7.554-0.798-10.295l0,0c-0.109-0.703-0.221-1.368-0.341-1.95 c-0.246-1.199-0.553-2.344-0.915-3.406c-0.239-0.699,0.136-1.46,0.835-1.699C66.148,44.22,66.293,44.197,66.437,44.197 M66.437,41.197c-0.478,0-0.951,0.079-1.405,0.234c-2.262,0.773-3.475,3.244-2.702,5.507c0.319,0.934,0.593,1.957,0.815,3.039 c0.097,0.473,0.197,1.047,0.315,1.806c0.444,2.881,0.715,6.389,0.762,9.876c0.05,3.664-0.144,7.192-0.577,10.486 c-0.006,0.035-0.011,0.071-0.016,0.107c-0.357,2.687-0.863,5.135-1.504,7.278c-0.686,2.284,0.616,4.707,2.904,5.399 c0.417,0.124,0.833,0.184,1.252,0.184c1.904,0,3.613-1.274,4.156-3.099c0.948-3.16,1.637-6.748,2.047-10.661 c0.005-0.037,0.01-0.074,0.014-0.111c0.377-3.64,0.505-7.454,0.38-11.334c-0.122-3.782-0.484-7.525-1.021-10.542 c-0.068-0.388-0.14-0.778-0.213-1.134c-0.294-1.434-0.664-2.812-1.102-4.096C69.948,42.381,68.298,41.197,66.437,41.197 L66.437,41.197z"></path><path fill="#d84178" d="M73.42,78.708c-0.109,0-0.221-0.006-0.33-0.021c-0.71-0.07-1.391-0.436-1.87-1.023 c-0.48-0.588-0.702-1.327-0.625-2.081c0.224-2.239,0.394-4.606,0.506-7.031c0.169-3.662,0.167-7.19-0.007-10.488 c-0.23-4.451-0.718-7.719-1.086-9.676c-0.29-1.552-0.56-2.606-0.694-3.097c-0.575-2.235-1.512-4.336-2.788-6.267 c-0.018-0.023-0.034-0.047-0.051-0.071c-1.581-2.371-3.582-4.331-5.948-5.826c-1.321-0.836-1.718-2.592-0.886-3.913 c0.526-0.831,1.424-1.325,2.403-1.325c0.536,0,1.06,0.151,1.515,0.439c3.074,1.94,5.667,4.486,7.704,7.566 c1.616,2.435,2.795,5.065,3.504,7.818c0.133,0.479,0.316,1.22,0.519,2.151c0.424,1.964,0.999,5.243,1.336,9.724 c0.25,3.326,0.333,6.874,0.244,10.546c0,0-0.002,0.077-0.004,0.105c-0.077,3.226-0.286,6.575-0.62,9.913 C76.1,77.607,74.886,78.708,73.42,78.708z"></path><path fill="#40396e" d="M62.044,29.389c0.244,0,0.492,0.067,0.713,0.207c2.937,1.854,5.381,4.293,7.254,7.126 c0.001,0,0.001-0.001,0.002-0.001c1.481,2.234,2.616,4.707,3.301,7.367c0.134,0.485,0.31,1.198,0.505,2.095c0,0,0,0,0,0 c0.448,2.079,0.985,5.26,1.306,9.519c-0.001,0.001-0.001,0.001-0.002,0.002c0.223,2.953,0.339,6.416,0.242,10.396l0.001-0.001 c0,0.016-0.001,0.033-0.002,0.049c0,0.005,0,0.009,0,0.014l0,0c-0.072,2.982-0.261,6.297-0.615,9.843 c-0.068,0.689-0.651,1.204-1.329,1.204c-0.045,0-0.091-0.002-0.136-0.007c-0.735-0.073-1.272-0.73-1.197-1.465 c0.25-2.501,0.41-4.905,0.512-7.114c0,0,0,0,0,0c0.186-4.041,0.152-7.588-0.007-10.637c0.001,0,0.001-0.001,0.002-0.001 c-0.223-4.276-0.68-7.575-1.111-9.872c-0.278-1.484-0.544-2.569-0.723-3.217c-0.635-2.471-1.677-4.74-3.035-6.774 c-0.001,0-0.001,0.001-0.002,0.001c-1.666-2.498-3.818-4.634-6.395-6.261c-0.625-0.396-0.812-1.222-0.418-1.847 C61.166,29.609,61.6,29.389,62.044,29.389 M62.044,26.389C62.044,26.389,62.044,26.389,62.044,26.389 c-1.497,0-2.869,0.755-3.669,2.021c-1.276,2.02-0.671,4.704,1.346,5.983c2.19,1.383,4.041,3.197,5.506,5.392 c0.021,0.032,0.043,0.063,0.065,0.094c1.175,1.783,2.037,3.721,2.561,5.761c0.004,0.017,0.009,0.033,0.013,0.05 c0.127,0.462,0.383,1.463,0.666,2.973c0.357,1.901,0.829,5.067,1.059,9.379c0.001,0.033,0.002,0.066,0.004,0.099 c0.17,3.251,0.173,6.731,0.007,10.342c-0.111,2.394-0.279,4.734-0.501,6.954c-0.117,1.148,0.222,2.278,0.956,3.176 c0.729,0.892,1.759,1.448,2.903,1.569c0.152,0.017,0.308,0.024,0.459,0.024c2.241,0,4.096-1.681,4.315-3.911 c0.336-3.362,0.548-6.743,0.628-10.045c0.001-0.019,0.001-0.038,0.001-0.055l0.001-0.032c0.001-0.024,0.001-0.048,0.001-0.072 c0.087-3.649,0.005-7.186-0.243-10.517c-0.001-0.034-0.003-0.068-0.006-0.102c-0.344-4.565-0.932-7.917-1.365-9.925 c-0.234-1.078-0.421-1.807-0.539-2.236c-0.752-2.907-1.996-5.683-3.699-8.252c-0.024-0.036-0.048-0.071-0.073-0.105 c-2.143-3.208-4.862-5.865-8.083-7.899C63.665,26.621,62.864,26.389,62.044,26.389L62.044,26.389L62.044,26.389z"></path><path fill="#d84178" d="M19.221,37.537c-0.427,0-0.831-0.096-1.203-0.283c-1.44-0.725-2.008-2.312-1.318-3.692l0.063-0.123 c1.267-2.516,2.926-5.021,4.927-7.438c6.839-8.254,17.249-13.182,27.847-13.182c1.555,0,2.836,1.256,2.856,2.801 c0.01,0.759-0.276,1.476-0.806,2.02c-0.529,0.542-1.238,0.847-1.997,0.855c-6.935,0.089-13.49,2.407-18.958,6.704 c-2.32,1.823-4.374,3.965-6.103,6.366c-1.033,1.45-1.974,2.985-2.646,4.318C21.385,36.873,20.315,37.537,19.221,37.537z"></path><path fill="#40396e" d="M49.536,14.319c0.749,0,1.347,0.587,1.356,1.32c0.011,0.74-0.582,1.347-1.32,1.356 c-7.363,0.095-14.286,2.639-19.866,7.024c-2.411,1.894-4.566,4.131-6.394,6.671c-0.981,1.378-1.993,2.983-2.767,4.519 c-0.248,0.492-0.79,0.828-1.324,0.828c-0.18,0-0.36-0.037-0.526-0.121c-0.66-0.332-0.983-1.022-0.653-1.683l0.055-0.109 c1.295-2.571,2.914-4.952,4.748-7.166C29.317,19.147,39.376,14.319,49.536,14.319 M49.536,11.319 c-11.039,0-21.88,5.131-29.001,13.724c-2.071,2.5-3.793,5.101-5.118,7.731l-0.05,0.098c-1.064,2.127-0.19,4.633,1.979,5.723 c0.569,0.288,1.219,0.441,1.874,0.441c1.674,0,3.245-0.973,4.003-2.478c0.638-1.266,1.537-2.732,2.531-4.128 c1.638-2.275,3.594-4.316,5.804-6.052c5.207-4.091,11.449-6.298,18.052-6.383c1.158-0.014,2.243-0.479,3.052-1.311 c0.809-0.831,1.246-1.928,1.229-3.088C53.863,13.241,51.909,11.319,49.536,11.319L49.536,11.319z"></path><path fill="#d84178" d="M40.838,86.063c-0.41,0-0.806-0.086-1.176-0.255c-0.687-0.311-1.214-0.875-1.48-1.586 c-0.266-0.709-0.239-1.479,0.073-2.169c0.979-2.15,1.806-4.373,2.46-6.608c0.958-3.261,1.566-6.638,1.809-10.038 c0.295-4.143,0.021-7.623-0.284-10.482c-0.001-0.006-0.151-1.356-0.151-1.356c-0.158-1.406-0.278-2.476-0.278-3.349 c0-4.64,3.674-8.414,8.19-8.414c5.096,0,7.032,3.862,7.668,5.132c0.775,1.546,1.333,5.59,1.54,7.284 c0.004,0.026,0.007,0.052,0.009,0.076c0.334,2.762,0.523,5.584,0.535,7.952c0.004,0.758-0.288,1.473-0.822,2.011 c-0.533,0.538-1.244,0.837-2.003,0.841c-1.569,0-2.844-1.268-2.852-2.825c-0.013-2.736-0.268-5.397-0.479-7.149 c-0.367-2.356-0.876-5.253-1.044-5.736c-0.811-1.611-1.473-1.91-2.552-1.91c-1.387,0-2.515,1.228-2.515,2.737 c0,0.559,0.112,1.543,0.242,2.684c0.072,0.647,0.149,1.337,0.223,2.066c0.263,2.594,0.564,6.499,0.228,11.032 c-0.271,3.641-0.92,7.259-1.927,10.754c-0.745,2.59-1.697,5.163-2.829,7.648C42.967,85.409,41.952,86.063,40.838,86.063z"></path><path fill="#40396e" d="M50,43.306c3.742,0,5.403,2.459,6.327,4.304c0.465,0.928,1.005,3.616,1.395,6.817c0,0,0,0,0,0 c0.001,0.007,0.002,0.014,0.002,0.021c0.001,0.012,0.003,0.023,0.004,0.034c0,0-0.001,0-0.001,0 c0.298,2.467,0.511,5.285,0.523,7.776c0.004,0.739-0.592,1.34-1.333,1.344h-0.005c-0.737,0-1.335-0.596-1.338-1.333 c-0.012-2.484-0.219-5.074-0.491-7.321c-0.057-0.371-0.876-5.586-1.153-6.14c-1.017-2.036-2.12-2.828-3.932-2.828 c-2.214,0-4.014,1.9-4.014,4.237c0,0.648,0.112,1.631,0.253,2.876c0.07,0.617,0.146,1.302,0.219,2.025h0 c0.001,0.007,0.001,0.015,0.002,0.022c0.001,0.009,0.002,0.018,0.003,0.027c0,0,0,0,0,0c0.287,2.839,0.532,6.502,0.218,10.72 c0,0,0,0,0,0c-0.236,3.173-0.785,6.682-1.871,10.45c-0.687,2.385-1.583,4.871-2.753,7.442c-0.223,0.492-0.71,0.783-1.219,0.783 c-0.186,0-0.373-0.037-0.553-0.12c-0.673-0.305-0.969-1.099-0.664-1.772c1.067-2.344,1.893-4.619,2.534-6.807 c1.097-3.736,1.641-7.215,1.865-10.352c0,0,0,0,0,0c0.307-4.312,0.009-7.965-0.289-10.748c0.031,0.005,0.062,0.008,0.093,0.014 c-0.031-0.005-0.062-0.01-0.093-0.016c-0.052-0.478-0.104-0.94-0.152-1.367c-0.15-1.329-0.269-2.378-0.269-3.178 C43.309,46.407,46.31,43.306,50,43.306 M50,40.306c-5.344,0-9.691,4.447-9.691,9.914c0,0.957,0.124,2.06,0.282,3.458l0.006,0.056 c0.047,0.413,0.097,0.86,0.147,1.322c0.001,0.01,0.002,0.02,0.003,0.03c0.299,2.793,0.566,6.191,0.28,10.216 c-0.234,3.291-0.823,6.562-1.751,9.719c-0.636,2.173-1.439,4.329-2.386,6.41c-0.479,1.057-0.519,2.234-0.114,3.318 c0.407,1.087,1.213,1.95,2.269,2.429c0.563,0.256,1.167,0.387,1.792,0.387c1.7,0,3.251-0.999,3.951-2.545 c1.16-2.548,2.138-5.191,2.903-7.85c1.036-3.595,1.702-7.315,1.98-11.058c0.346-4.647,0.039-8.634-0.223-11.232 c-0.001-0.015-0.003-0.029-0.004-0.04c-0.077-0.758-0.155-1.454-0.225-2.082l-0.006-0.053c-0.117-1.037-0.228-2.017-0.228-2.486 c0-0.671,0.465-1.237,1.014-1.237c0.444,0,0.643,0,1.155,0.986c0.2,0.795,0.676,3.572,0.957,5.39 c0.205,1.712,0.45,4.288,0.463,6.927c0.011,2.381,1.958,4.318,4.338,4.318c2.412-0.012,4.35-1.967,4.338-4.358 c-0.012-2.419-0.204-5.293-0.542-8.095c-0.002-0.021-0.005-0.042-0.007-0.061L60.7,54.06c-0.266-2.18-0.84-6.096-1.691-7.794 C57.028,42.311,53.997,40.306,50,40.306L50,40.306z"></path><path fill="#d84178" d="M35.606,84.059c-0.417,0-0.821-0.09-1.202-0.268c-0.689-0.322-1.208-0.892-1.466-1.604 c-0.258-0.715-0.222-1.486,0.102-2.174c0.961-2.042,1.726-4.073,2.34-6.212c0.008-0.029,0.018-0.059,0.027-0.087 c0.892-3.122,1.396-6.384,1.5-9.698c0.108-3.568-0.248-6.729-0.534-9.269c-0.039-0.336-0.069-0.639-0.1-0.936l-0.055-0.521 c-0.105-1.039-0.208-2.124-0.208-3.071c0-3.227,1.094-6.387,3.08-8.899c0.536-0.67,1.342-1.052,2.217-1.052 c0.03,0,0.151,0.004,0.181,0.006c0.039,0.002,0.078,0.006,0.116,0.012c0.316,0.043,0.605,0.12,0.859,0.229 c0.187,0.081,0.391,0.168,0.605,0.335c1.236,0.981,1.443,2.77,0.474,3.994c-1.215,1.534-1.856,3.394-1.856,5.376 c0,0.966,0.153,2.327,0.301,3.643l0.018,0.16c0.318,2.814,0.744,6.568,0.553,10.865c0,0.005-0.002,0.059-0.002,0.069 c-0.17,3.623-0.764,7.195-1.767,10.607c-0.008,0.026-0.017,0.053-0.025,0.078c-0.682,2.302-1.552,4.584-2.588,6.785 C37.709,83.419,36.7,84.059,35.606,84.059z"></path><path fill="#40396e" d="M41.309,41.768c0.03,0,0.06,0.001,0.09,0.003c0.162,0.023,0.33,0.061,0.476,0.123 c0.093,0.045,0.189,0.073,0.273,0.139c0.578,0.458,0.678,1.301,0.219,1.879c-1.427,1.804-2.18,3.984-2.18,6.307 c0,1.015,0.143,2.318,0.31,3.811c-0.001,0-0.001,0-0.002,0c0.009,0.081,0.018,0.154,0.027,0.236 c0.327,2.879,0.72,6.437,0.537,10.555c0,0,0,0,0,0c0,0.001,0,0.002,0,0.004c-0.001,0.018-0.001,0.035-0.002,0.054 c0,0-0.001,0-0.002,0c-0.144,3.098-0.621,6.569-1.706,10.263c-0.001,0-0.001,0-0.002-0.001c-0.626,2.128-1.445,4.346-2.53,6.649 c-0.228,0.485-0.71,0.769-1.211,0.769c-0.191,0-0.385-0.041-0.569-0.127c-0.669-0.314-0.955-1.112-0.641-1.781 c1.049-2.229,1.832-4.373,2.425-6.436c0.001,0,0.001,0.001,0.002,0.001c1.054-3.659,1.486-7.102,1.583-10.153 c0.112-3.684-0.249-6.881-0.545-9.498c-0.059-0.514-0.102-0.965-0.152-1.436c0.001,0,0.001,0,0.002,0.001 c-0.111-1.067-0.201-2.063-0.201-2.911c0-2.89,0.979-5.72,2.757-7.968C40.531,41.921,40.917,41.768,41.309,41.768 M41.309,38.768 C41.309,38.768,41.309,38.768,41.309,38.768c-1.334,0-2.568,0.587-3.385,1.61c-2.204,2.789-3.413,6.279-3.413,9.841 c0,1.002,0.105,2.13,0.207,3.121c0.003,0.035,0.006,0.07,0.009,0.105l0.049,0.477c0.032,0.316,0.065,0.636,0.105,0.984 c0.281,2.489,0.632,5.593,0.526,9.065c-0.101,3.182-0.584,6.314-1.436,9.306c-0.012,0.036-0.023,0.072-0.033,0.108 c-0.592,2.062-1.33,4.02-2.256,5.986c-1.018,2.169-0.084,4.758,2.08,5.774c0.579,0.27,1.215,0.411,1.844,0.411 c1.673,0,3.214-0.978,3.926-2.492c1.062-2.256,1.957-4.599,2.66-6.965c0.013-0.038,0.025-0.076,0.036-0.114 c1.036-3.526,1.65-7.217,1.824-10.97c0-0.01,0.001-0.024,0.002-0.04l0,0c0.197-4.446-0.236-8.263-0.552-11.05l-0.014-0.127 l-0.011-0.097c-0.143-1.285-0.291-2.606-0.291-3.484c0-1.641,0.53-3.178,1.533-4.446c0.719-0.906,1.041-2.042,0.906-3.196 c-0.135-1.149-0.708-2.177-1.614-2.895c-0.38-0.3-0.729-0.449-0.88-0.512c-0.026-0.012-0.052-0.024-0.079-0.035 c-0.375-0.16-0.778-0.269-1.231-0.334c-0.082-0.012-0.164-0.02-0.246-0.025C41.487,38.771,41.398,38.768,41.309,38.768 L41.309,38.768L41.309,38.768z"></path><path fill="#d84178" d="M79.577,57.964c-1.474,0-2.688-1.107-2.824-2.576c-0.083-0.884-0.174-1.714-0.267-2.507 c-0.341-2.883-0.806-6.264-1.675-9.475c-0.731-2.707-1.97-5.405-3.579-7.803c-1.949-2.873-4.416-5.292-7.326-7.182 c-4.162-2.705-8.971-4.135-13.906-4.135c-3.264,0-6.441,0.607-9.445,1.807c-0.34,0.134-0.691,0.2-1.049,0.2 c-1.17,0-2.205-0.7-2.639-1.785c-0.281-0.707-0.271-1.478,0.028-2.173c0.3-0.699,0.854-1.237,1.56-1.518 C42.129,19.354,46.014,18.61,50,18.61c6.469,0,12.698,1.997,18.038,5.78c0.56,0.202,1.298,0.796,2.964,2.377l0.123,0.116 c0.968,0.896,1.885,1.851,2.725,2.841c1.688,1.989,3.12,4.17,4.254,6.479c0.854,1.74,1.554,3.603,2.137,5.694 c0.33,1.182,0.622,2.435,0.893,3.826c0.22,1.14,0.417,2.302,0.602,3.555c0.057,0.388,0.111,0.774,0.164,1.162 c0.196,1.438,0.366,2.927,0.505,4.423c0.071,0.753-0.156,1.49-0.64,2.073c-0.484,0.585-1.167,0.945-1.923,1.015 C79.757,57.961,79.665,57.964,79.577,57.964z"></path><path fill="#40396e" d="M50,20.111c6.423,0,12.472,2.098,17.435,5.693c0.009-0.006,0.021-0.009,0.035-0.009 c0.369,0,2.41,1.981,2.636,2.19c0.92,0.85,1.789,1.755,2.6,2.71c1.596,1.881,2.964,3.955,4.051,6.17 c0.865,1.762,1.52,3.579,2.038,5.435c0.341,1.224,0.623,2.463,0.865,3.71c0.224,1.157,0.418,2.321,0.59,3.487 c0.056,0.381,0.11,0.763,0.162,1.144c0.197,1.45,0.362,2.904,0.498,4.361c0.07,0.735-0.471,1.388-1.208,1.456 c-0.041,0.004-0.084,0.005-0.125,0.005c-0.683,0-1.267-0.521-1.331-1.215c-0.084-0.898-0.175-1.739-0.27-2.544 c-0.383-3.242-0.862-6.535-1.715-9.691c-0.801-2.961-2.142-5.804-3.782-8.247c-2.065-3.043-4.709-5.626-7.754-7.604 c-4.288-2.787-9.367-4.377-14.723-4.377c-3.454,0-6.818,0.642-10.001,1.913c-0.162,0.064-0.33,0.094-0.494,0.094 c-0.532,0-1.035-0.318-1.245-0.842c-0.273-0.687,0.061-1.467,0.748-1.74C42.508,20.817,46.207,20.111,50,20.111 M50,17.111 c-4.177,0-8.249,0.779-12.103,2.315c-1.076,0.428-1.922,1.251-2.38,2.318c-0.456,1.063-0.472,2.241-0.045,3.316 c0.665,1.663,2.247,2.734,4.033,2.734c0.548,0,1.085-0.102,1.596-0.304c2.835-1.132,5.826-1.703,8.899-1.703 c4.645,0,9.171,1.346,13.088,3.892c2.743,1.781,5.066,4.06,6.907,6.773c1.511,2.251,2.679,4.795,3.369,7.345 c0.842,3.114,1.298,6.428,1.632,9.26c0.092,0.782,0.181,1.6,0.263,2.473c0.208,2.241,2.064,3.935,4.318,3.935 c0.127,0,0.26-0.006,0.387-0.017c1.168-0.107,2.212-0.658,2.953-1.551c0.741-0.893,1.089-2.021,0.979-3.176 c-0.14-1.506-0.313-3.016-0.512-4.482c-0.053-0.393-0.109-0.786-0.167-1.178c-0.19-1.291-0.391-2.475-0.613-3.62 c-0.278-1.431-0.579-2.722-0.92-3.946c-0.609-2.182-1.34-4.128-2.235-5.951c-1.188-2.42-2.688-4.705-4.457-6.789 c-0.882-1.039-1.841-2.039-2.851-2.972l-0.11-0.104c-1.475-1.399-2.394-2.216-3.259-2.604C63.209,19.171,56.729,17.111,50,17.111 L50,17.111z"></path><path fill="#d84178" d="M33.942,68.446c-1.565,0-2.839-1.271-2.839-2.834c-0.005-1.52-0.028-2.94-0.064-4.094 c0,0-0.005-0.064-0.008-0.098c-0.218-3.351-0.396-5.702-0.501-6.62c-0.161-1.401-0.313-2.725-0.316-4.532 c-0.002-4.189,1.255-8.174,3.632-11.572c3.719-5.314,9.758-8.488,16.154-8.488c6.062,0,11.705,2.752,15.484,7.551 c0.491,0.62,0.691,1.407,0.561,2.213c-0.114,0.704-0.479,1.331-1.028,1.768c-0.506,0.396-1.101,0.601-1.729,0.601l0,0 c-0.602,0-1.203-0.197-1.694-0.555c-0.148-0.105-0.363-0.258-0.563-0.508c-2.702-3.43-6.721-5.393-11.029-5.393 c-4.4,0-8.477,2.051-11.183,5.628c-1.916,2.536-2.93,5.547-2.93,8.707c0,0.52,0.019,0.98,0.046,1.426 c0.049,0.859,0.136,1.643,0.235,2.506c0.203,1.774,0.482,4.203,0.576,8.595c0.006,0.371,0.033,1.947,0.035,2.855 c0.002,0.758-0.292,1.473-0.827,2.01c-0.534,0.536-1.246,0.833-2.004,0.835c-0.001,0-0.003,0-0.004,0H33.942z"></path><path fill="#40396e" d="M50,31.708c5.597,0,10.812,2.543,14.306,6.978c0.243,0.307,0.318,0.685,0.259,1.044 c-0.052,0.318-0.209,0.619-0.482,0.835c-0.239,0.187-0.518,0.275-0.797,0.275c-0.286,0-0.571-0.093-0.811-0.268 c-0.096-0.07-0.196-0.134-0.273-0.23c-2.983-3.786-7.429-5.958-12.202-5.958c-5.044,0-9.522,2.448-12.379,6.223 c-2.018,2.669-3.233,5.995-3.233,9.612c0,0.553,0.02,1.044,0.048,1.518c0.05,0.871,0.137,1.672,0.243,2.585 c0.217,1.89,0.476,4.197,0.566,8.455l0,0c0,0.011,0.033,1.826,0.035,2.826c0.002,0.74-0.596,1.34-1.335,1.342 c-0.002,0-0.004,0-0.004,0c-0.739,0-1.338-0.596-1.338-1.335c-0.005-1.54-0.029-2.976-0.066-4.141 c-0.001-0.001-0.332-5.219-0.518-6.841c-0.164-1.427-0.303-2.666-0.307-4.364c0-0.016-0.002-0.03-0.002-0.046 c0-3.972,1.253-7.645,3.363-10.663C38.392,34.816,43.839,31.708,50,31.708 M50,28.708c-6.885,0-13.384,3.413-17.383,9.129 c-2.555,3.652-3.905,7.934-3.905,12.382c0,0.031,0.001,0.069,0.002,0.106c0.007,1.872,0.169,3.283,0.326,4.647 c0.058,0.51,0.2,2.036,0.493,6.514c0.002,0.034,0.005,0.068,0.008,0.101c0.037,1.168,0.059,2.562,0.064,4.035 c0,2.38,1.946,4.324,4.338,4.324c2.403-0.006,4.344-1.957,4.338-4.349c-0.002-0.984-0.033-2.749-0.035-2.867 c-0.095-4.476-0.379-6.946-0.585-8.75c-0.098-0.847-0.182-1.612-0.228-2.415c-0.03-0.493-0.043-0.918-0.043-1.347 c0-2.832,0.908-5.53,2.626-7.802c2.42-3.198,6.06-5.033,9.986-5.033c3.846,0,7.435,1.755,9.846,4.814 c0.34,0.427,0.685,0.672,0.851,0.79c0.767,0.56,1.659,0.852,2.589,0.852c0.954,0,1.893-0.324,2.645-0.912 c0.857-0.678,1.419-1.639,1.594-2.716c0.198-1.204-0.118-2.44-0.867-3.387C62.597,31.668,56.524,28.708,50,28.708L50,28.708z"></path><path fill="#d84178" d="M26.136,77.591c-0.287,0-0.575-0.045-0.857-0.133c-1.501-0.483-2.322-2.086-1.844-3.575 c0.735-2.286,1.26-4.33,1.604-6.249c0.772-4.297,0.483-7.148,0.06-10.17l-0.101-0.716c-0.292-2.041-0.585-4.089-0.585-6.53 c0-1.312,0.121-2.688,0.369-4.205c0.901-5.508,3.6-10.648,7.599-14.477c0.89-0.853,1.851-1.647,2.856-2.365 c0.515-0.368,1.056-0.725,1.606-1.059l0.16-0.11c0.596-0.415,1.061-0.719,1.538-0.834c3.6-1.831,7.453-2.759,11.458-2.759 c2.216,0,4.411,0.285,6.527,0.849c1.507,0.399,2.412,1.954,2.016,3.466c-0.325,1.245-1.451,2.116-2.739,2.116 c-0.247,0-0.494-0.032-0.733-0.097c-1.642-0.436-3.348-0.657-5.07-0.657c-2.115,0-4.229,0.352-6.285,1.045 c-4.095,1.382-7.696,4.128-10.141,7.732c-1.886,2.843-3.094,6.225-3.391,9.51c-0.064,0.711-0.094,1.299-0.094,1.847 c0,2.057,0.253,3.817,0.521,5.681c0.744,5.224,0.652,9.866-0.277,14.195c-0.38,1.776-0.869,3.585-1.495,5.527 C28.457,76.801,27.371,77.591,26.136,77.591z"></path><path fill="#40396e" d="M50,25.909c2.082,0,4.148,0.268,6.141,0.798c0.715,0.189,1.138,0.921,0.951,1.636 c-0.157,0.6-0.695,0.997-1.289,0.997c-0.114,0-0.231-0.015-0.347-0.046c-1.772-0.471-3.606-0.708-5.456-0.708 c-2.366,0-4.635,0.405-6.765,1.124c-4.468,1.508-8.288,4.457-10.902,8.311c-1.941,2.926-3.31,6.529-3.644,10.216 c-0.059,0.655-0.1,1.313-0.1,1.982c0,2.152,0.26,3.972,0.537,5.895c0.65,4.569,0.714,9.131-0.26,13.666 c-0.346,1.621-0.816,3.395-1.456,5.382c-0.184,0.567-0.708,0.928-1.274,0.928c-0.136,0-0.273-0.021-0.41-0.064 c-0.703-0.227-1.09-0.979-0.864-1.684c0.796-2.471,1.318-4.577,1.654-6.443c0.814-4.533,0.496-7.597,0.068-10.644 c-0.036-0.264-0.082-0.584-0.107-0.762c-0.277-1.932-0.564-3.932-0.564-6.275c0-1.352,0.137-2.669,0.35-3.963 c0.845-5.168,3.372-10.014,7.155-13.636c0.842-0.806,1.742-1.551,2.69-2.228c0.492-0.351,0.997-0.684,1.513-0.997 c0.21-0.127,1.057-0.777,1.337-0.777c0.013,0,0.025,0.001,0.036,0.004C42.298,26.9,46.034,25.909,50,25.909 M50,22.909 c-4.192,0-8.227,0.959-11.999,2.851c-0.709,0.213-1.307,0.629-1.854,1.009l-0.12,0.083c-0.564,0.343-1.123,0.712-1.662,1.096 c-1.063,0.758-2.079,1.6-3.022,2.503c-4.233,4.052-7.089,9.492-8.042,15.318c-0.262,1.595-0.389,3.05-0.389,4.447 c0,2.549,0.314,4.745,0.592,6.683l0.024,0.171l0.083,0.594c0.407,2.897,0.684,5.622-0.049,9.703 c-0.334,1.859-0.843,3.84-1.556,6.054c-0.732,2.278,0.523,4.726,2.799,5.459c0.452,0.141,0.891,0.209,1.33,0.209 c1.887,0,3.546-1.207,4.128-3.003c0.644-2,1.146-3.856,1.536-5.68c0.967-4.5,1.065-9.314,0.297-14.715 c-0.261-1.816-0.507-3.527-0.507-5.473c0-0.503,0.028-1.047,0.088-1.714c0.275-3.038,1.396-6.173,3.156-8.827 c2.245-3.309,5.575-5.849,9.361-7.127c1.9-0.641,3.853-0.966,5.806-0.966c1.593,0,3.169,0.204,4.685,0.608 c0.366,0.097,0.742,0.146,1.118,0.146c1.969,0,3.692-1.331,4.191-3.237c0.605-2.311-0.779-4.687-3.086-5.297 C54.67,23.212,52.345,22.909,50,22.909L50,22.909z"></path><path fill="#d84178" d="M58.998,86.512c-0.316,0-0.628-0.052-0.926-0.155c-1.479-0.511-2.267-2.129-1.759-3.607 c0.824-2.386,1.514-4.961,2.049-7.655c0.002-0.011,0.004-0.022,0.007-0.033c0.684-3.436,1.103-7.086,1.244-10.851 c0.074-1.866,0.088-3.57,0.043-5.214c-0.05-1.783-0.16-3.459-0.336-5.123c-0.409-3.869-1.023-5.902-1.092-6.121 c-0.497-1.649-1.567-3.157-3.017-4.261c-1.533-1.165-3.384-1.808-5.212-1.808c-0.905,0-1.796,0.148-2.649,0.439l-0.183,0.065 c-0.299,0.11-0.627,0.169-0.96,0.169c-1.188,0-2.259-0.75-2.667-1.866c-0.26-0.714-0.227-1.484,0.095-2.172 c0.32-0.687,0.889-1.208,1.601-1.467l0.27-0.095c1.446-0.499,2.956-0.751,4.494-0.751c3.914,0,7.717,1.657,10.435,4.548 c1.519,1.617,2.599,3.468,3.21,5.502c0.07,0.224,0.138,0.467,0.201,0.711c0.174,0.664,0.321,1.337,0.453,2.012 c0.188,0.96,0.353,1.977,0.491,3.021c0.151,1.148,0.274,2.368,0.366,3.629c0.081,1.099,0.139,2.246,0.171,3.408 c0.036,1.31,0.035,2.73-0.003,4.47c-0.098,3.846-0.46,7.6-1.076,11.162c-0.005,0.034-0.01,0.066-0.014,0.091 c-0.651,3.65-1.506,7.002-2.554,10.039C61.287,85.743,60.209,86.512,58.998,86.512z"></path><path fill="#40396e" d="M50,37.507c3.617,0,6.975,1.558,9.342,4.075c1.296,1.379,2.303,3.035,2.865,4.907 c0.068,0.217,0.129,0.437,0.187,0.658c0.166,0.635,0.307,1.277,0.433,1.921c0.19,0.972,0.346,1.95,0.476,2.932 c0.156,1.175,0.271,2.357,0.358,3.54c0.082,1.112,0.136,2.227,0.167,3.342c0.041,1.484,0.029,2.946-0.004,4.395 c-0.095,3.787-0.448,7.446-1.058,10.964c-0.001,0.021-0.006,0.044-0.01,0.066c-0.004,0.023-0.007,0.047-0.011,0.07 c-0.596,3.335-1.428,6.68-2.482,9.737c-0.191,0.553-0.71,0.901-1.265,0.901c-0.145,0-0.293-0.023-0.437-0.073 c-0.698-0.241-1.069-1.003-0.828-1.702c0.871-2.523,1.567-5.158,2.107-7.881c0.04-0.012,0.081-0.028,0.121-0.04 c-0.041,0.012-0.08,0.026-0.121,0.038c0.705-3.54,1.128-7.244,1.272-11.087c0.07-1.746,0.093-3.512,0.043-5.312 c-0.057-2.028-0.185-3.75-0.342-5.239c-0.4-3.771-1-5.926-1.153-6.412c-0.608-2.018-1.889-3.75-3.54-5.007 c-1.738-1.322-3.886-2.114-6.12-2.114c-1.074,0-2.127,0.177-3.135,0.521l-0.2,0.071c-0.151,0.055-0.305,0.081-0.457,0.081 c-0.545,0-1.059-0.337-1.257-0.881c-0.253-0.694,0.105-1.461,0.799-1.715l0.253-0.089C47.283,37.732,48.63,37.507,50,37.507 M50,34.507c-1.703,0-3.377,0.279-4.974,0.829l-0.273,0.096c-2.28,0.832-3.441,3.327-2.621,5.573 c0.621,1.705,2.259,2.852,4.076,2.852c0.51,0,1.011-0.089,1.491-0.265l0.176-0.063c0.659-0.225,1.388-0.346,2.125-0.346 c1.502,0,3.03,0.533,4.304,1.502c1.199,0.913,2.081,2.15,2.484,3.485c0.036,0.116,0.639,2.057,1.042,5.862 c0.171,1.622,0.278,3.261,0.327,5.007c0.045,1.613,0.031,3.284-0.042,5.108c-0.139,3.691-0.548,7.262-1.217,10.621 c-0.003,0.015-0.006,0.031-0.009,0.046c-0.523,2.625-1.193,5.129-1.992,7.444c-0.779,2.263,0.425,4.737,2.685,5.517 c0.455,0.157,0.932,0.237,1.416,0.237c1.849,0,3.497-1.174,4.101-2.922c1.073-3.113,1.948-6.54,2.599-10.188 c0.004-0.023,0.011-0.064,0.016-0.098c0.007-0.039,0.014-0.081,0.02-0.125c0.625-3.625,0.991-7.436,1.089-11.329 c0.039-1.772,0.04-3.216,0.003-4.553c-0.033-1.184-0.092-2.354-0.174-3.478c-0.097-1.324-0.22-2.539-0.376-3.714 c-0.146-1.102-0.311-2.121-0.506-3.114c-0.152-0.779-0.308-1.467-0.475-2.104c-0.07-0.268-0.144-0.535-0.227-0.799 c-0.666-2.22-1.861-4.271-3.54-6.059C58.527,36.337,54.326,34.507,50,34.507L50,34.507z"></path><path fill="#d84178" d="M21.9,72.776c-0.202,0-0.401-0.021-0.592-0.062c-1.524-0.32-2.509-1.828-2.188-3.359 c0.55-2.611,0.729-4.867,0.577-7.315c-0.083-1.32-0.245-2.587-0.449-4.105c-0.519-3.847-0.911-8.002-0.272-12.316 c1.244-8.419,5.865-16.09,12.68-21.045l0.092-0.071c0.498-0.354,1.069-0.538,1.665-0.538c0.91,0,1.771,0.44,2.303,1.178 c0.381,0.53,0.558,1.171,0.514,1.855c-0.064,0.86-0.484,1.622-1.154,2.105c-2.379,1.715-4.652,4.08-6.402,6.661 c-1.602,2.405-2.895,5.358-3.634,8.305c-0.693,2.835-0.898,5.96-0.609,9.278c0.118,1.347,0.301,2.755,0.445,3.832 c0.313,2.322,0.669,4.955,0.498,8.098c-0.087,1.71-0.314,3.428-0.697,5.245C24.403,71.827,23.236,72.776,21.9,72.776z"></path><path fill="#40396e" d="M36.935,24.268c-0.813-1.13-2.129-1.804-3.522-1.804c-0.91,0-1.782,0.28-2.524,0.809 c-0.062,0.045-0.111,0.082-0.157,0.118c-7.114,5.191-11.939,13.21-13.24,22.009c-0.642,4.339-0.288,8.477,0.217,12.318 c0.875,0.968,1.69,2.307,1.653,3.623c0.124,1.022,0.452,1.886,0.021,2.809c-0.083,0.209-1.065,0.599-1.176,0.794 c-0.071,1.319-0.248,2.652-0.554,4.102c-0.238,1.136-0.021,2.294,0.612,3.264c0.634,0.971,1.608,1.637,2.744,1.875 c0.278,0.06,0.583,0.092,0.891,0.092c2.042,0,3.827-1.451,4.244-3.45c0.398-1.89,0.636-3.684,0.727-5.479 c0.178-3.276-0.188-5.983-0.51-8.37c-0.153-1.134-0.324-2.47-0.437-3.762c-0.276-3.154-0.083-6.115,0.573-8.8 c0.694-2.766,1.914-5.553,3.43-7.831c1.641-2.419,3.784-4.652,6.023-6.265c1.031-0.744,1.676-1.908,1.773-3.194 C37.793,26.059,37.519,25.081,36.935,24.268z M34.197,27.886c-2.625,1.892-4.983,4.407-6.766,7.036 c-1.746,2.621-3.077,5.709-3.848,8.781c-0.783,3.205-0.934,6.493-0.648,9.773c0.117,1.333,0.292,2.707,0.452,3.902 c0.335,2.484,0.646,4.889,0.487,7.816c-0.077,1.508-0.273,3.142-0.667,5.017c-0.132,0.632-0.689,1.063-1.308,1.063 c-0.091,0-0.186-0.009-0.277-0.029c-0.724-0.152-1.187-0.862-1.035-1.584c0.653-3.099,0.744-5.486,0.607-7.716 c-0.089-1.423-0.268-2.782-0.46-4.213c-0.536-3.976-0.866-7.902-0.276-11.896c1.172-7.93,5.581-15.327,12.078-20.052 c0.03-0.023,0.061-0.048,0.093-0.071c0.238-0.17,0.512-0.251,0.783-0.251c0.416,0,0.825,0.193,1.085,0.555 c0.191,0.266,0.253,0.578,0.234,0.883C34.704,27.281,34.531,27.646,34.197,27.886z"></path><path fill="#d84178" d="M84.347,53.28c-0.274,0-0.485-0.059-0.6-0.09c-1.321-0.291-2.241-1.421-2.241-2.748v-0.218 c0-1.646-0.138-3.307-0.422-5.076c-0.003-0.021-0.006-0.042-0.009-0.062c-0.366-2.254-0.984-4.485-1.837-6.633 c-0.006-0.015-0.011-0.029-0.016-0.044c-0.961-2.414-2.207-4.696-3.705-6.782c-1.73-2.409-3.803-4.569-6.159-6.42 c-3.995-3.141-8.708-5.281-13.629-6.191c-0.748-0.139-1.396-0.56-1.825-1.187c-0.429-0.625-0.588-1.379-0.449-2.122 c0.243-1.342,1.412-2.322,2.777-2.322c0.181,0,0.364,0.018,0.549,0.054c6.065,1.123,11.836,3.811,16.67,7.77 c2.316,1.896,4.41,4.088,6.225,6.512c1.512,2.018,2.802,4.134,3.834,6.29c0.015,0.026,0.111,0.229,0.111,0.229 c0.009,0.021,0.019,0.042,0.026,0.063c0.818,1.769,1.53,3.682,2.062,5.538c0.507,1.774,0.89,3.661,1.138,5.61 c0.229,1.791,0.337,3.309,0.337,4.774v0.218C87.185,52.007,85.911,53.28,84.347,53.28z"></path><path fill="#40396e" d="M88.335,45.258c-0.253-1.986-0.642-3.914-1.156-5.729c-0.009-0.035-0.018-0.069-0.028-0.104 c-0.549-1.917-1.282-3.888-2.121-5.708c-0.02-0.048-0.041-0.096-0.063-0.144c-0.009-0.019-0.023-0.047-0.036-0.073l-0.022-0.049 c-0.022-0.047-0.045-0.092-0.069-0.137c-1.071-2.229-2.405-4.414-3.965-6.496c-1.886-2.52-4.065-4.798-6.473-6.772 c-5.031-4.119-11.036-6.916-17.367-8.087c-0.239-0.048-0.521-0.075-0.802-0.075c0,0,0,0,0,0c-2.091,0-3.88,1.498-4.255,3.562 c-0.21,1.126,0.035,2.281,0.694,3.238c0.656,0.952,1.643,1.594,2.78,1.806c4.756,0.879,9.121,2.862,12.979,5.895 c2.247,1.765,4.222,3.823,5.869,6.116c1.422,1.982,2.608,4.151,3.523,6.446c0.007,0.019,0.014,0.038,0.022,0.057 c0.808,2.037,1.395,4.152,1.745,6.287c0.004,0.031,0.008,0.063,0.014,0.094c0.017,0.106,0.022,0.205,0.038,0.31 c0.52,0.85,0.773,1.863,0.758,2.875c0.076,0.231,0.156,0.461,0.201,0.702c0.685,1.199,0.866,2.693,0.524,4.044 c0.576,0.635,1.338,1.111,2.232,1.322c0.178,0.049,0.532,0.141,0.989,0.141c2.392,0,4.338-1.946,4.338-4.338v-0.218 C88.684,48.697,88.574,47.119,88.335,45.258z M85.684,50.443c0,0.739-0.599,1.338-1.338,1.338c-0.1,0-0.187-0.036-0.282-0.057 c-0.599-0.132-1.058-0.642-1.058-1.281v-0.218c0-1.806-0.162-3.577-0.441-5.313c0-0.001,0.001-0.002,0.001-0.003 c-0.391-2.431-1.047-4.774-1.934-7.009c0.01-0.017,0.015-0.026,0.015-0.026s-0.005,0.008-0.015,0.024 c-1.01-2.548-2.318-4.946-3.897-7.146c-1.819-2.533-3.992-4.793-6.452-6.725c0,0,0,0,0,0c-4.072-3.201-8.916-5.494-14.283-6.486 c-0.726-0.136-1.208-0.833-1.072-1.559c0.116-0.642,0.674-1.098,1.303-1.098c0.084,0,0.17,0.008,0.256,0.025 c6.053,1.12,11.496,3.761,16.011,7.458c0,0,0,0,0,0c2.241,1.836,4.241,3.936,5.974,6.25c1.43,1.909,2.689,3.95,3.72,6.12 c0.001-0.001,0.001-0.003,0.002-0.004c0.01,0.02,0.018,0.042,0.028,0.063c0.009,0.019,0.02,0.038,0.029,0.057 c-0.001,0.001-0.001,0.002-0.002,0.004c0.791,1.698,1.495,3.578,2.016,5.396c0,0.001-0.001,0.002-0.001,0.003 c0.501,1.747,0.859,3.547,1.093,5.384c0.193,1.506,0.325,3.031,0.325,4.585V50.443z"></path><path fill="#d84178" d="M49.778,77.591c-0.199,0-0.397-0.021-0.588-0.062c-0.731-0.152-1.369-0.585-1.785-1.217 c-0.418-0.634-0.562-1.393-0.408-2.136c0.537-2.595,0.907-5.368,1.098-8.243c0.29-4.354,0.106-8.103-0.098-10.48 c-0.05-0.584-0.528-4.245-0.57-4.529c-0.29-1.468,0.712-2.962,2.245-3.267c0.189-0.036,0.373-0.054,0.553-0.054 c1.357,0,2.527,0.966,2.782,2.298c0.001,0.003,0.392,1.977,0.668,5.209c0.309,3.61,0.347,7.285,0.113,10.924 c-0.205,3.2-0.619,6.326-1.232,9.293C52.284,76.639,51.116,77.591,49.778,77.591z"></path><path fill="#40396e" d="M50.225,49.104c0.63,0,1.187,0.444,1.309,1.08c0.037,0.187,0.391,2.068,0.646,5.055 c0.235,2.758,0.382,6.463,0.111,10.7c-0.182,2.841-0.548,5.909-1.204,9.085c-0.13,0.632-0.687,1.067-1.308,1.067 c-0.091,0-0.182-0.009-0.273-0.029c-0.724-0.15-1.19-0.856-1.04-1.581c0.608-2.937,0.949-5.788,1.126-8.448 c0.001,0,0.001,0,0.002,0c0.282-4.255,0.132-7.988-0.102-10.709c-0.056-0.66-0.573-4.582-0.582-4.625 c-0.143-0.724,0.33-1.427,1.054-1.57C50.052,49.112,50.139,49.104,50.225,49.104 M50.225,46.104c-0.279,0-0.56,0.027-0.835,0.081 c-1.142,0.225-2.123,0.877-2.768,1.838c-0.628,0.935-0.866,2.052-0.674,3.157c0.074,0.54,0.512,3.901,0.554,4.399 c0.2,2.33,0.379,5.999,0.098,10.256c-0.188,2.806-0.548,5.51-1.072,8.038c-0.235,1.137-0.013,2.296,0.624,3.264 c0.636,0.967,1.612,1.628,2.746,1.863c0.27,0.058,0.575,0.091,0.881,0.091c2.047,0,3.832-1.456,4.246-3.461 c0.626-3.029,1.05-6.226,1.26-9.5c0.238-3.715,0.199-7.466-0.115-11.147c-0.283-3.317-0.689-5.368-0.693-5.388 C54.088,47.581,52.299,46.104,50.225,46.104L50.225,46.104z"></path>
</svg>